<svg xmlns="http://www.w3.org/2000/svg">
  <symbol id="unity-removebg-icon" viewBox="0 0 33 33">
    <svg width="33" height="33" viewBox="0 0 33 33" fill="none" xmlns="http://www.w3.org/2000/svg">
    <g id="Frame">
      <path id="iconPrimary" opacity="0.35" d="M10.1401 7.36035H3.75146V13.749H10.1401V7.36035Z" fill="#292929"></path>
      <path id="iconPrimary_2" opacity="0.35" d="M16.5288 20.1377H15.4226L10.1401 15.3462V13.749H16.5288V20.1377Z" fill="#292929"></path>
      <path id="iconPrimary_3" opacity="0.35" d="M22.9175 7.36035H16.5288V13.749H22.9175V7.36035Z" fill="#292929"></path>
      <path id="iconPrimary_4" opacity="0.35" d="M29.3062 13.749H22.9175V20.1377H29.3062V13.749Z" fill="#292929"></path>
      <path id="iconPrimary_5" opacity="0.35" d="M22.9175 20.5922L16.5288 22.4695V20.1377H22.9175V20.5922Z" fill="#292929"></path>
      <path id="iconPrimary_6" d="M23.7158 12.9817C23.7158 14.3048 22.6432 15.3774 21.3201 15.3774C19.9969 15.3774 18.9243 14.3048 18.9243 12.9817C18.9243 11.6585 19.9969 10.5859 21.3201 10.5859C22.6432 10.5859 23.7158 11.6585 23.7158 12.9817Z" fill="#292929"></path>
      <path id="iconPrimary_7" d="M27.3092 5.76318H5.74744C3.7658 5.76318 2.15381 7.37596 2.15381 9.35681V24.5299C2.15381 26.5108 3.7658 28.1235 5.74744 28.1235H27.3092C29.2908 28.1235 30.9028 26.5108 30.9028 24.5299V9.35681C30.9028 7.37596 29.2908 5.76318 27.3092 5.76318ZM5.74744 8.15893H27.3092C27.9697 8.15893 28.5071 8.69704 28.5071 9.35681V22.4707L25.4586 19.4218C24.1016 18.0648 21.7316 18.0648 20.3762 19.4218L18.4086 21.3886C18.2534 21.5446 17.9984 21.543 17.8432 21.3902L12.6813 16.2274C11.3243 14.8705 8.95426 14.8705 7.59886 16.2274L4.54958 19.2767V9.35681C4.54958 8.69704 5.08689 8.15893 5.74744 8.15893ZM5.74744 25.7278C5.08689 25.7278 4.54956 25.1897 4.54956 24.5299V22.6645L9.29348 17.9213C9.74425 17.469 10.5343 17.469 10.9866 17.9213L16.1501 23.0856C17.2388 24.1712 19.0114 24.1758 20.1017 23.084L22.0708 21.1156C22.5216 20.6633 23.3116 20.6633 23.7639 21.1156L28.0775 25.4291C27.8681 25.6081 27.6054 25.7278 27.3092 25.7278L5.74744 25.7278Z" fill="#292929"></path>
    </g>
    </svg>
  </symbol>
  <symbol id="unity-upload-icon" viewBox="0 0 20 20">
    <svg width="20" height="20" viewBox="0 0 20 20" fill="none" xmlns="http://www.w3.org/2000/svg">
      <g id="Frame">
        <path id="iconPrimary" d="M19.7388 11.6679C19.7388 12.8257 19.2881 13.9136 18.4697 14.7314C17.6514 15.5493 16.5635 16 15.4063 16H14.749C14.335 16 13.999 15.664 13.999 15.25C13.999 14.8359 14.335 14.5 14.749 14.5H15.4063C16.1626 14.5 16.874 14.2055 17.4092 13.6704C17.9443 13.1357 18.2388 12.4248 18.2388 11.6679C18.2388 10.9404 17.9619 10.2505 17.4595 9.72606C16.958 9.20213 16.2827 8.89256 15.5571 8.85399C15.3027 8.84032 15.0723 8.69823 14.9458 8.47704C14.8193 8.25536 14.814 7.98485 14.9321 7.75878C15.0576 7.51757 15.1543 7.26903 15.2192 7.02001C15.2876 6.76024 15.3223 6.49413 15.3223 6.22851C15.3223 5.33496 14.9746 4.49511 14.3433 3.86328C13.1353 2.65625 11.0469 2.58935 9.7754 3.72266C9.17481 4.25928 8.78565 4.99512 8.68116 5.79541C8.6504 6.03125 8.50928 6.23877 8.30128 6.354C8.09376 6.46972 7.84376 6.47949 7.62648 6.38086C7.45802 6.3042 7.28468 6.24512 7.10988 6.20557C6.24953 6.00977 5.36818 6.27491 4.76125 6.86768C4.28664 7.33057 4.02541 7.94434 4.02541 8.59571C4.02541 8.76319 4.04348 8.93067 4.07863 9.09425C4.1133 9.25245 4.16506 9.40968 4.23146 9.56007C4.33107 9.78419 4.31447 10.043 4.18751 10.2529C4.06007 10.4629 3.83839 10.5972 3.59376 10.6128C3.09767 10.6445 2.63722 10.8599 2.29591 11.2188C1.9546 11.5791 1.76612 12.0513 1.76612 12.5483C1.76612 13.0698 1.96924 13.5601 2.3379 13.9287C2.70655 14.2969 3.1963 14.5 3.71778 14.5H5.81739C6.23145 14.5 6.56739 14.8359 6.56739 15.25C6.56739 15.6641 6.23145 16 5.81739 16H3.71778C2.7959 16 1.92921 15.6411 1.27735 14.9893C0.625011 14.3374 0.266121 13.4702 0.266121 12.5483C0.266121 11.6655 0.600591 10.8272 1.20753 10.1865C1.59474 9.77882 2.06837 9.47608 2.58985 9.29688C2.54688 9.06543 2.5254 8.83057 2.5254 8.59571C2.5254 7.53663 2.94728 6.54151 3.71388 5.79395C4.66993 4.85987 6.04738 4.44385 7.39015 4.73145C7.65431 3.91651 8.13087 3.18018 8.77687 2.60352C9.65871 1.81739 10.7954 1.38428 11.9785 1.38428C13.272 1.38428 14.4888 1.88819 15.4038 2.80274C16.3184 3.71778 16.8223 4.93458 16.8223 6.22852C16.8223 6.62305 16.771 7.01758 16.6699 7.40088C16.6592 7.44287 16.6475 7.48486 16.6353 7.52637C17.3565 7.73828 18.0132 8.13526 18.543 8.68848C19.314 9.49366 19.7388 10.5517 19.7388 11.6679Z" fill="#292929"></path>
        <path id="iconPrimary_2" d="M13.8535 10.8237L10.8506 7.82617C10.5576 7.53418 10.0835 7.53369 9.79053 7.82666L6.79346 10.8242C6.50049 11.1172 6.50049 11.5918 6.79346 11.8848C6.93994 12.0313 7.13184 12.1045 7.32373 12.1045C7.51562 12.1045 7.70752 12.0313 7.854 11.8848L9.57617 10.1622V18.3457C9.57617 18.7598 9.91211 19.0957 10.3262 19.0957C10.7402 19.0957 11.0762 18.7598 11.0762 18.3457V10.1705L12.7939 11.8853C13.0864 12.1772 13.561 12.1773 13.8545 11.8843C14.147 11.5913 14.147 11.1162 13.8535 10.8237Z" fill="#292929"></path>
      </g>
    </svg>
  </symbol>
  <symbol id="unity-changebg-icon" viewBox="0 0 33 33">
    <svg width="33" height="33" viewBox="0 0 33 33" fill="none" xmlns="http://www.w3.org/2000/svg">
      <g id="Frame" clip-path="url(#clip0_3766_1770)">
        <path id="iconPrimary" d="M23.7163 12.9839C23.7163 14.307 22.6437 15.3796 21.3206 15.3796C19.9974 15.3796 18.9248 14.307 18.9248 12.9839C18.9248 11.6607 19.9974 10.5881 21.3206 10.5881C22.6437 10.5881 23.7163 11.6607 23.7163 12.9839Z" fill="#292929"/>
        <path id="iconPrimary_2" d="M24.5149 17.7419C20.5455 17.7419 17.3276 20.9598 17.3276 24.9292C17.3276 28.8986 20.5455 32.1165 24.5149 32.1165C28.4843 32.1165 31.7021 28.8986 31.7021 24.9292C31.7021 20.9598 28.4843 17.7419 24.5149 17.7419ZM28.5078 25.9274H25.5131V28.9221C25.5131 29.4727 25.0655 29.9203 24.5149 29.9203C23.9643 29.9203 23.5167 29.4727 23.5167 28.9221V25.9274H20.522C19.9714 25.9274 19.5237 25.4798 19.5237 24.9292C19.5237 24.3786 19.9714 23.931 20.522 23.931H23.5167V20.9363C23.5167 20.3857 23.9643 19.938 24.5149 19.938C25.0655 19.938 25.5131 20.3857 25.5131 20.9363V23.931H28.5078C29.0584 23.931 29.506 24.3786 29.506 24.9292C29.506 25.4798 29.0584 25.9274 28.5078 25.9274Z" fill="#292929"/>
        <path id="iconPrimary_3" d="M27.3099 5.7632H5.74817C3.76731 5.7632 2.15454 7.37597 2.15454 9.35683V24.5299C2.15454 26.5108 3.76731 28.1235 5.74817 28.1235H13.8775C14.5388 28.1235 15.0754 27.587 15.0754 26.9257C15.0754 26.2643 14.5388 25.7278 13.8775 25.7278H5.74817C5.08839 25.7278 4.55029 25.1897 4.55029 24.5299V22.6629L9.29345 17.9213C9.76137 17.4534 10.5194 17.4534 10.9873 17.9213L14.046 20.98C14.5139 21.4479 15.2719 21.4479 15.7398 20.98C16.2078 20.512 16.2078 19.754 15.7398 19.2861L12.6812 16.2274C11.2806 14.8268 9.00022 14.8268 7.59959 16.2274L4.55031 19.2759V9.35681C4.55031 8.69704 5.08841 8.15893 5.74818 8.15893H27.3099C27.9697 8.15893 28.5078 8.69704 28.5078 9.35681V15.5006C28.5078 16.1619 29.0444 16.6985 29.7057 16.6985C30.367 16.6985 30.9036 16.1619 30.9036 15.5006V9.35681C30.9036 7.37596 29.2908 5.7632 27.3099 5.7632Z" fill="#292929"/>
      </g>
    <defs>
      <clipPath id="clip0_3766_1770">
        <rect width="31.9433" height="31.9433" fill="white" transform="translate(0.557373 0.97168)"/>
      </clipPath>
      </defs>
    </svg>
  </symbol>
  <symbol id="unity-slider-icon" viewBox="0 0 33 33">
    <svg xmlns="http://www.w3.org/2000/svg" width="33" height="33" viewBox="0 0 33 33" fill="none">
      <g id="Frame">
        <path id="iconPrimary" d="M3.35242 11.7869H7.61478C8.15884 14.0711 10.2042 15.7798 12.6523 15.7798C15.1004 15.7798 17.1458 14.0711 17.6899 11.7869H29.7057C30.367 11.7869 30.9035 11.2503 30.9035 10.589C30.9035 9.92766 30.367 9.39111 29.7057 9.39111H17.6899C17.1458 7.10688 15.1004 5.39819 12.6523 5.39819C10.2042 5.39819 8.15882 7.10688 7.61478 9.39111H3.35242C2.69109 9.39111 2.15454 9.92766 2.15454 10.589C2.15454 11.2503 2.69109 11.7869 3.35242 11.7869ZM12.6523 7.79394C14.1933 7.79394 15.4474 9.04798 15.4474 10.589C15.4474 12.13 14.1933 13.384 12.6523 13.384C11.1113 13.384 9.85728 12.13 9.85728 10.589C9.85728 9.04798 11.1113 7.79394 12.6523 7.79394Z" fill="#292929"/>
        <path id="iconPrimary_2" d="M29.7057 22.1685H25.6757C25.1317 19.8842 23.0863 18.1755 20.6382 18.1755C18.1901 18.1755 16.1447 19.8842 15.6006 22.1685H3.35242C2.69109 22.1685 2.15454 22.705 2.15454 23.3663C2.15454 24.0277 2.69109 24.5642 3.35242 24.5642H15.6006C16.1447 26.8484 18.1901 28.5571 20.6382 28.5571C23.0863 28.5571 25.1317 26.8484 25.6757 24.5642H29.7057C30.367 24.5642 30.9035 24.0277 30.9035 23.3663C30.9035 22.705 30.367 22.1685 29.7057 22.1685ZM20.6382 26.1614C19.0972 26.1614 17.8431 24.9073 17.8431 23.3663C17.8431 21.8253 19.0972 20.5713 20.6382 20.5713C22.1792 20.5713 23.4332 21.8253 23.4332 23.3663C23.4332 24.9073 22.1792 26.1614 20.6382 26.1614Z" fill="#292929"/>
      </g>
    </svg>
  </symbol>
  <symbol id="unity-alert-icon" viewBox="0 0 20 20">
    <svg xmlns="http://www.w3.org/2000/svg" width="20" height="20" viewBox="0 0 20 20" fill="none">
      <g id="Frame">
        <path id="iconPrimary" d="M9.99936 15.1233C9.76871 15.1315 9.54398 15.0496 9.37275 14.895C9.04242 14.5304 9.04242 13.9751 9.37275 13.6104C9.5421 13.4521 9.76758 13.3677 9.99939 13.3757C10.2357 13.3662 10.4653 13.4559 10.6324 13.6231C10.7945 13.7908 10.8816 14.017 10.8738 14.2499C10.8862 14.4846 10.8042 14.7145 10.6461 14.8886C10.4725 15.0531 10.2382 15.1382 9.99936 15.1233Z" fill="white"/>
        <path id="iconPrimary_2" d="M10 11.75C9.58594 11.75 9.25 11.4141 9.25 11V7C9.25 6.58594 9.58594 6.25 10 6.25C10.4141 6.25 10.75 6.58594 10.75 7V11C10.75 11.4141 10.4141 11.75 10 11.75Z" fill="white"/>
        <path id="iconPrimary_3" d="M16.7332 18H3.26642C2.46613 18 1.74347 17.5898 1.3338 16.9023C0.924131 16.2148 0.906551 15.3838 1.28741 14.6797L8.02082 2.23242C8.41437 1.50488 9.17268 1.05273 9.99982 1.05273C10.827 1.05273 11.5853 1.50488 11.9788 2.23242L18.7122 14.6797C19.0931 15.3838 19.0755 16.2149 18.6658 16.9024C18.2562 17.5899 17.5335 18 16.7332 18ZM9.99982 2.55273C9.86554 2.55273 9.53205 2.59082 9.34015 2.94531L2.60675 15.3926C2.42364 15.7315 2.55646 16.0244 2.62237 16.1338C2.6878 16.2441 2.88165 16.5 3.26641 16.5H16.7332C17.118 16.5 17.3118 16.2441 17.3773 16.1338C17.4432 16.0244 17.576 15.7315 17.3929 15.3926L10.6595 2.94531C10.4676 2.59082 10.1341 2.55273 9.99982 2.55273Z" fill="white"/>
      </g>
    </svg>
  </symbol>
  <symbol id="unity-close-icon" viewBox="0 0 12 12">
    <svg xmlns="http://www.w3.org/2000/svg" width="12" height="12" viewBox="0 0 12 12" fill="none">
      <g id="Frame" clip-path="url(#clip0_3633_2420)">
        <path id="iconPrimary" d="M7.34283 6L10.7389 2.60352C11.1095 2.2334 11.1095 1.63184 10.7389 1.26075C10.3678 0.891609 9.76721 0.890629 9.39612 1.26173L6.00061 4.65773L2.6051 1.26172C2.23401 0.890629 1.63342 0.891599 1.26233 1.26074C0.891723 1.63183 0.891723 2.2334 1.26233 2.60351L4.65839 5.99999L1.26233 9.39647C0.891723 9.76659 0.891723 10.3681 1.26233 10.7392C1.44788 10.9238 1.69055 11.0166 1.93372 11.0166C2.17689 11.0166 2.41956 10.9238 2.60511 10.7383L6.00062 7.34226L9.39613 10.7383C9.58168 10.9238 9.82435 11.0166 10.0675 11.0166C10.3107 11.0166 10.5534 10.9238 10.7389 10.7392C11.1095 10.3681 11.1095 9.76658 10.7389 9.39647L7.34283 6Z" fill="white"/>
      </g>
      <defs>
        <clipPath id="clip0_3633_2420">
          <rect width="12" height="12" fill="white"/>
        </clipPath>
      </defs>
    </svg>
  </symbol>
  <symbol id="unity-refresh-icon" viewBox="0 0 31 27">
    <svg xmlns="http://www.w3.org/2000/svg" width="31" height="27" viewBox="0 0 31 27" fill="none">
      <path id="iconPrimary" d="M20.1931 6.14337H5.28967L8.32308 3.16251C8.83985 2.65469 8.83985 1.83204 8.32308 1.32422C7.80631 0.816406 6.96915 0.816406 6.45239 1.32422L1.16503 6.51999C0.64826 7.02696 0.64826 7.84961 1.16416 8.35743L6.45152 13.5617C6.7099 13.8164 7.04839 13.9434 7.38773 13.9434C7.7262 13.9434 8.06382 13.8164 8.32222 13.5633C8.83985 13.0564 8.83985 12.2329 8.32394 11.7251L5.29452 8.74336H20.1931C24.5702 8.74336 28.1315 12.2422 28.1315 16.5434C28.1315 20.8445 24.5702 24.3434 20.1931 24.3434H13.6001C12.8697 24.3434 12.2772 24.9257 12.2772 25.6434C12.2772 26.3611 12.8697 26.9434 13.6001 26.9434H20.1931C26.0291 26.9434 30.7773 22.2782 30.7773 16.5434C30.7773 10.8085 26.0291 6.14337 20.1931 6.14337Z" fill="#292929"/>
    </svg>
  </symbol>
  <symbol id="unity-photoshop-icon" viewBox="0 0 40 39">
    <svg id="Photoshop_40" data-name="Photoshop 40" xmlns="http://www.w3.org/2000/svg" width="40" height="39" viewBox="0 0 40 39">
      <path id="Path_99550" data-name="Path 99550" d="M7.125,0H33a7.005,7.005,0,0,1,7,7.1V31.9A7.11,7.11,0,0,1,32.875,39H7.125A7.11,7.11,0,0,1,0,31.9V7.1A7.032,7.032,0,0,1,7.125,0Z" fill="#001e36"></path>
      <path id="Path_99551" data-name="Path 99551" d="M7.2,25.375V8.25c0-.125,0-.25.125-.25h5.25a8.738,8.738,0,0,1,3.375.5A6.555,6.555,0,0,1,18.2,9.75a4.945,4.945,0,0,1,1.25,1.875,6.349,6.349,0,0,1,.375,2.125,6.1,6.1,0,0,1-1,3.5,5.926,5.926,0,0,1-2.625,2,11.784,11.784,0,0,1-3.75.625H10.825V25.25a.436.436,0,0,1-.125.25H7.45C7.325,25.625,7.2,25.5,7.2,25.375ZM10.825,11.25v5.625h1.5a9.649,9.649,0,0,0,1.875-.25,3.236,3.236,0,0,0,1.375-.875,2.444,2.444,0,0,0,.5-1.75,3.328,3.328,0,0,0-.375-1.5,4.313,4.313,0,0,0-1.125-1,5.182,5.182,0,0,0-2-.375H11.45A2.543,2.543,0,0,0,10.825,11.25Z" transform="translate(1.8 1.942)" fill="#31a8ff"></path>
      <path id="Path_99552" data-name="Path 99552" d="M27.35,14.95a6.279,6.279,0,0,0-1.625-.625,9.649,9.649,0,0,0-1.875-.25,2.752,2.752,0,0,0-1,.125c-.25,0-.375.125-.5.375-.125.125-.125.25-.125.5a.459.459,0,0,0,.125.375,2.727,2.727,0,0,0,.625.5,4.44,4.44,0,0,0,1.125.5,9.369,9.369,0,0,1,2.5,1.25,7.163,7.163,0,0,1,1.375,1.375,3.993,3.993,0,0,1,.375,1.75,5.093,5.093,0,0,1-.625,2.25,5.535,5.535,0,0,1-1.875,1.5,7.564,7.564,0,0,1-3,.5,13.774,13.774,0,0,1-2.25-.25,9.207,9.207,0,0,1-1.75-.5c-.125,0-.25-.25-.25-.375V21.075l.125-.125h.125a10.814,10.814,0,0,0,2.125.875,9.715,9.715,0,0,0,2,.25,3.345,3.345,0,0,0,1.375-.25.844.844,0,0,0,.5-.75.687.687,0,0,0-.375-.625,4.954,4.954,0,0,0-1.625-.75,8.644,8.644,0,0,1-2.375-1.25,4.324,4.324,0,0,1-1.25-1.375,3.992,3.992,0,0,1-.375-1.75,3.777,3.777,0,0,1,.625-2,3.448,3.448,0,0,1,1.75-1.5,6.694,6.694,0,0,1,3-.625,12.127,12.127,0,0,1,2.125.125,6.593,6.593,0,0,1,1.5.375l.125.125v3l-.125.125Z" transform="translate(4.65 2.731)" fill="#31a8ff"></path>
    </svg>
  </symbol>
</svg>
