<svg xmlns="http://www.w3.org/2000/svg" width="10" height="10" viewBox="0 0 10 10" fill="none">
<path d="M5.74243 4.86514L9.38696 1.2209C9.59204 1.01582 9.59204 0.683595 9.38696 0.478516C9.18188 0.273437 8.84966 0.273437 8.64458 0.478516L5 4.12275L1.35542 0.478516C1.15034 0.273437 0.818117 0.273437 0.613038 0.478516C0.407959 0.683595 0.407959 1.01582 0.613038 1.2209L4.25757 4.86514L0.613038 8.50937C0.407959 8.71445 0.407959 9.04668 0.613038 9.25176C0.715574 9.35429 0.849904 9.40557 0.984227 9.40557C1.11855 9.40557 1.25288 9.3543 1.35542 9.25176L4.99999 5.60752L8.64457 9.25176C8.74711 9.35429 8.88144 9.40557 9.01576 9.40557C9.15008 9.40557 9.28441 9.3543 9.38695 9.25176C9.59203 9.04668 9.59203 8.71445 9.38695 8.50937L5.74243 4.86514Z" fill="#292929"/>
</svg>