<svg width="20" height="21" viewBox="0 0 20 21" fill="none" xmlns="http://www.w3.org/2000/svg">
<path d="M10 19.5317C5.1748 19.5317 1.25 15.6069 1.25 10.7817C1.25 5.95654 5.1748 2.03174 10 2.03174C14.8252 2.03174 18.75 5.95654 18.75 10.7817C18.75 15.6069 14.8252 19.5317 10 19.5317ZM10 3.53174C6.00195 3.53174 2.75 6.78369 2.75 10.7817C2.75 14.7798 6.00195 18.0317 10 18.0317C13.998 18.0317 17.25 14.7798 17.25 10.7817C17.25 6.78369 13.998 3.53174 10 3.53174Z" fill="#292929"/>
<path d="M10.0006 6.04219C10.2313 6.03406 10.456 6.11606 10.6273 6.27081C10.9576 6.63586 10.9576 7.19183 10.6273 7.55688C10.4579 7.71539 10.2324 7.79996 10.0006 7.79192C9.76426 7.8014 9.53472 7.71157 9.36759 7.54417C9.20552 7.37627 9.11843 7.14985 9.12622 6.91662C9.11384 6.68165 9.19581 6.45147 9.35392 6.27722C9.5275 6.11248 9.76179 6.02734 10.0006 6.04219Z" fill="#292929"/>
<path d="M10 15.8442C9.58594 15.8442 9.25 15.5083 9.25 15.0942V10.2593C9.25 9.84522 9.58594 9.50928 10 9.50928C10.4141 9.50928 10.75 9.84522 10.75 10.2593V15.0942C10.75 15.5083 10.4141 15.8442 10 15.8442Z" fill="#292929"/>
</svg>
