<svg width="18" height="19" viewBox="0 0 18 19" fill="none" xmlns="http://www.w3.org/2000/svg">
<path fill-rule="evenodd" clip-rule="evenodd" d="M15.5694 7.51298L14.1114 6.10478L14.253 4.0833C14.253 4.08037 14.254 4.07646 14.254 4.07353C14.2735 3.74345 14.1495 3.42119 13.9083 3.18486C13.4581 2.75029 12.7374 2.76201 12.297 3.21318L10.8917 4.67119L8.87314 4.52959C8.54013 4.50811 8.20419 4.63115 7.97568 4.86943C7.76279 5.0872 7.64756 5.37529 7.65146 5.68095C7.65537 5.98564 7.77939 6.27079 7.99912 6.48368L9.45713 7.89188L9.31553 9.90848C9.29014 10.2483 9.41709 10.5784 9.66026 10.8118C9.87413 11.0188 10.1534 11.1311 10.4503 11.1311H10.4737C10.7784 11.1253 11.0626 11.0003 11.2696 10.7835L12.6769 9.32547L14.6945 9.46707C15.0284 9.48367 15.3624 9.36551 15.5968 9.12234C16.0333 8.67117 16.0206 7.94951 15.5694 7.51298Z" fill="#292929"/>
<path fill-rule="evenodd" clip-rule="evenodd" d="M7.22908 13.4642L7.3326 11.9847C7.34676 11.7914 7.27449 11.6029 7.13485 11.4671C6.87557 11.2152 6.46053 11.222 6.2076 11.4837L5.17977 12.5511L3.69735 12.4466C3.5035 12.4359 3.31551 12.5062 3.18417 12.6449C3.06259 12.7699 2.99716 12.9359 3.00009 13.1107C3.00253 13.2855 3.07333 13.4486 3.19931 13.5707L4.26523 14.6029L4.16025 16.0843C4.14804 16.2718 4.21787 16.4574 4.35507 16.5941C4.48202 16.7191 4.64755 16.7816 4.81405 16.7816C4.98446 16.7816 5.15536 16.7162 5.28573 16.5834L6.316 15.5199L7.79549 15.6195C7.98641 15.638 8.17684 15.5599 8.30428 15.4261C8.42782 15.3011 8.4952 15.1351 8.49373 14.9593C8.49226 14.7836 8.42244 14.6185 8.295 14.4945L7.22908 13.4642Z" fill="#292929"/>
</svg>
