<svg width="20" height="21" viewBox="0 0 20 21" fill="none" xmlns="http://www.w3.org/2000/svg">
<g clip-path="url(#clip0_1178_84294)">
<mask id="mask0_1178_84294" style="mask-type:alpha" maskUnits="userSpaceOnUse" x="3" y="3" width="14" height="15">
<path d="M15.7446 6.59345C15.4609 6.52714 15.1789 6.69873 15.1109 6.98105L14.8446 8.08335C13.8662 6.38103 12.0433 5.28027 9.99999 5.28027C7.42079 5.28027 5.18714 7.03027 4.56849 9.53633C4.49876 9.81797 4.67069 10.1023 4.95233 10.1721C5.23329 10.2418 5.51834 10.0695 5.58772 9.78789C6.09051 7.75215 7.90477 6.33027 9.99998 6.33027C11.7618 6.33027 13.3145 7.34268 14.0663 8.8729L12.5946 8.51709C12.3122 8.45146 12.0292 8.62236 11.9609 8.90468C11.8928 9.18632 12.0661 9.47002 12.3478 9.53837L14.6194 10.0873C14.7068 10.1493 14.811 10.1871 14.9215 10.1871C14.9632 10.1871 15.0056 10.1823 15.0476 10.1721C15.0814 10.1637 15.1077 10.1434 15.1381 10.1293C15.1867 10.1164 15.2384 10.1157 15.2821 10.0887C15.4007 10.0162 15.4858 9.89931 15.5186 9.76396L16.1315 7.22714C16.1995 6.9455 16.0262 6.66181 15.7446 6.59345Z" fill="#292929"/>
<path d="M15.0477 11.5878C14.7698 11.5201 14.482 11.6904 14.4123 11.972C13.9095 14.0084 12.0952 15.4303 10 15.4303C8.2381 15.4303 6.68536 14.4177 5.93363 12.8868L7.40545 13.2428C7.68743 13.3071 7.97112 13.1375 8.03913 12.8552C8.10715 12.5736 7.93386 12.2899 7.65222 12.2215L5.37377 11.6709C5.25405 11.5882 5.10405 11.5509 4.95237 11.5878C4.94173 11.5906 4.93417 11.5981 4.92388 11.6013C4.85163 11.6106 4.78113 11.6323 4.7179 11.6712C4.5993 11.7437 4.51419 11.8606 4.48138 11.9959L3.86854 14.5328C3.80052 14.8144 3.97381 15.0981 4.25545 15.1664C4.29715 15.176 4.3385 15.1808 4.37918 15.1808C4.61604 15.1808 4.83104 15.0195 4.88914 14.7788L5.15544 13.6765C6.13379 15.379 7.95677 16.4803 10 16.4803C12.5792 16.4803 14.8129 14.7296 15.4315 12.2236C15.5013 11.9419 15.3293 11.6576 15.0477 11.5878Z" fill="#292929"/>
</mask>
<g mask="url(#mask0_1178_84294)">
<rect x="3" y="3.86523" width="14" height="14" fill="#292929"/>
</g>
</g>
<defs>
<clipPath id="clip0_1178_84294">
<rect y="0.865234" width="20" height="20" rx="6" fill="white"/>
</clipPath>
</defs>
</svg>
