<svg width="18" height="19" viewBox="0 0 18 19" fill="none" xmlns="http://www.w3.org/2000/svg">
<path d="M17.5303 16.835L12.447 11.7517C13.4164 10.5503 14 9.02526 14 7.36523C14 3.50585 10.8594 0.365234 7 0.365234C3.14062 0.365234 0 3.50584 0 7.36522C0 11.2246 3.14062 14.3652 7 14.3652C8.66003 14.3652 10.1851 13.7816 11.3865 12.8122L16.4697 17.8955C16.6162 18.042 16.8076 18.1152 17 18.1152C17.1924 18.1152 17.3838 18.042 17.5303 17.8955C17.8232 17.6025 17.8232 17.1279 17.5303 16.835ZM7 12.8652C3.96777 12.8652 1.5 10.3975 1.5 7.36522C1.5 4.33299 3.96777 1.86522 7 1.86522C10.0322 1.86522 12.5 4.33299 12.5 7.36522C12.5 10.3975 10.0322 12.8652 7 12.8652Z" fill="#292929"/>
</svg>