<svg width="0" height="0" class="hidden">
  <symbol xmlns="http://www.w3.org/2000/svg" fill="none" viewBox="0 0 10 10" id="unity-close-icon">
    <path d="M5.74243 4.86514L9.38696 1.2209C9.59204 1.01582 9.59204 0.683595 9.38696 0.478516C9.18188 0.273437 8.84966 0.273437 8.64458 0.478516L5 4.12275L1.35542 0.478516C1.15034 0.273437 0.818117 0.273437 0.613038 0.478516C0.407959 0.683595 0.407959 1.01582 0.613038 1.2209L4.25757 4.86514L0.613038 8.50937C0.407959 8.71445 0.407959 9.04668 0.613038 9.25176C0.715574 9.35429 0.849904 9.40557 0.984227 9.40557C1.11855 9.40557 1.25288 9.3543 1.35542 9.25176L4.99999 5.60752L8.64457 9.25176C8.74711 9.35429 8.88144 9.40557 9.01576 9.40557C9.15008 9.40557 9.28441 9.3543 9.38695 9.25176C9.59203 9.04668 9.59203 8.71445 9.38695 8.50937L5.74243 4.86514Z" fill="#292929"></path>
  </symbol>
  <symbol fill="none" xmlns="http://www.w3.org/2000/svg" viewBox="0 0 20 21" id="unity-info-icon">
    <path d="M10 19.5317C5.1748 19.5317 1.25 15.6069 1.25 10.7817C1.25 5.95654 5.1748 2.03174 10 2.03174C14.8252 2.03174 18.75 5.95654 18.75 10.7817C18.75 15.6069 14.8252 19.5317 10 19.5317ZM10 3.53174C6.00195 3.53174 2.75 6.78369 2.75 10.7817C2.75 14.7798 6.00195 18.0317 10 18.0317C13.998 18.0317 17.25 14.7798 17.25 10.7817C17.25 6.78369 13.998 3.53174 10 3.53174Z" fill="#292929"></path>
    <path d="M10.0006 6.04219C10.2313 6.03406 10.456 6.11606 10.6273 6.27081C10.9576 6.63586 10.9576 7.19183 10.6273 7.55688C10.4579 7.71539 10.2324 7.79996 10.0006 7.79192C9.76426 7.8014 9.53472 7.71157 9.36759 7.54417C9.20552 7.37627 9.11843 7.14985 9.12622 6.91662C9.11384 6.68165 9.19581 6.45147 9.35392 6.27722C9.5275 6.11248 9.76179 6.02734 10.0006 6.04219Z" fill="#292929"></path>
    <path d="M10 15.8442C9.58594 15.8442 9.25 15.5083 9.25 15.0942V10.2593C9.25 9.84522 9.58594 9.50928 10 9.50928C10.4141 9.50928 10.75 9.84522 10.75 10.2593V15.0942C10.75 15.5083 10.4141 15.8442 10 15.8442Z" fill="#292929"></path>
  </symbol>
  <symbol fill="none" xmlns="http://www.w3.org/2000/svg" viewBox="0 0 18 19" id="unity-prompt-icon">
    <path fill-rule="evenodd" clip-rule="evenodd" d="M15.5694 7.51298L14.1114 6.10478L14.253 4.0833C14.253 4.08037 14.254 4.07646 14.254 4.07353C14.2735 3.74345 14.1495 3.42119 13.9083 3.18486C13.4581 2.75029 12.7374 2.76201 12.297 3.21318L10.8917 4.67119L8.87314 4.52959C8.54013 4.50811 8.20419 4.63115 7.97568 4.86943C7.76279 5.0872 7.64756 5.37529 7.65146 5.68095C7.65537 5.98564 7.77939 6.27079 7.99912 6.48368L9.45713 7.89188L9.31553 9.90848C9.29014 10.2483 9.41709 10.5784 9.66026 10.8118C9.87413 11.0188 10.1534 11.1311 10.4503 11.1311H10.4737C10.7784 11.1253 11.0626 11.0003 11.2696 10.7835L12.6769 9.32547L14.6945 9.46707C15.0284 9.48367 15.3624 9.36551 15.5968 9.12234C16.0333 8.67117 16.0206 7.94951 15.5694 7.51298Z" fill="#292929"></path>
    <path fill-rule="evenodd" clip-rule="evenodd" d="M7.22908 13.4642L7.3326 11.9847C7.34676 11.7914 7.27449 11.6029 7.13485 11.4671C6.87557 11.2152 6.46053 11.222 6.2076 11.4837L5.17977 12.5511L3.69735 12.4466C3.5035 12.4359 3.31551 12.5062 3.18417 12.6449C3.06259 12.7699 2.99716 12.9359 3.00009 13.1107C3.00253 13.2855 3.07333 13.4486 3.19931 13.5707L4.26523 14.6029L4.16025 16.0843C4.14804 16.2718 4.21787 16.4574 4.35507 16.5941C4.48202 16.7191 4.64755 16.7816 4.81405 16.7816C4.98446 16.7816 5.15536 16.7162 5.28573 16.5834L6.316 15.5199L7.79549 15.6195C7.98641 15.638 8.17684 15.5599 8.30428 15.4261C8.42782 15.3011 8.4952 15.1351 8.49373 14.9593C8.49226 14.7836 8.42244 14.6185 8.295 14.4945L7.22908 13.4642Z" fill="#292929"></path>
  </symbol>
  <symbol fill="none" xmlns="http://www.w3.org/2000/svg" viewBox="0 0 20 21" id="unity-refresh-icon">
    <path d="M18.2065 3.89745C17.8013 3.80272 17.3984 4.04784 17.3013 4.45116L16.9208 6.02587C15.5231 3.59399 12.919 2.02148 10 2.02148C6.31544 2.02148 3.12452 4.52148 2.24073 8.10156C2.14112 8.5039 2.38673 8.91015 2.78907 9.00976C3.19044 9.10937 3.59766 8.86328 3.69678 8.46093C4.41504 5.55273 7.00684 3.52148 10 3.52148C12.5168 3.52148 14.735 4.96777 15.809 7.1538L13.7065 6.6455C13.3032 6.55175 12.8989 6.79589 12.8013 7.19921C12.7041 7.60155 12.9517 8.00683 13.354 8.10448L16.5992 8.88866C16.724 8.97728 16.8729 9.03124 17.0308 9.03124C17.0903 9.03124 17.1509 9.0244 17.2109 9.00976C17.2592 8.9978 17.2968 8.96874 17.3401 8.94872C17.4097 8.93017 17.4835 8.92919 17.5459 8.89061C17.7153 8.78709 17.8369 8.6201 17.8838 8.42674L18.7593 4.80272C18.8564 4.40038 18.6089 3.9951 18.2065 3.89745Z" fill="#292929"/>
    <path d="M17.2109 11.0322C16.814 10.9355 16.4028 11.1787 16.3032 11.5811C15.585 14.4902 12.9932 16.5215 10 16.5215C7.48298 16.5215 5.26478 15.075 4.19087 12.8879L6.29347 13.3965C6.6963 13.4883 7.10158 13.2461 7.19874 12.8428C7.29591 12.4404 7.04835 12.0352 6.64601 11.9375L3.39107 11.1509C3.22005 11.0327 3.00576 10.9795 2.78908 11.0322C2.77388 11.0361 2.76308 11.0469 2.74837 11.0515C2.64516 11.0647 2.54445 11.0957 2.45412 11.1514C2.28469 11.2549 2.1631 11.4219 2.11623 11.6152L1.24074 15.2393C1.14357 15.6416 1.39113 16.0469 1.79347 16.1445C1.85304 16.1582 1.91212 16.165 1.97023 16.165C2.30861 16.165 2.61574 15.9346 2.69875 15.5908L3.07918 14.0161C4.47682 16.4482 7.08107 18.0215 10 18.0215C13.6846 18.0215 16.8755 15.5205 17.7593 11.9404C17.8589 11.5381 17.6133 11.1318 17.2109 11.0322Z" fill="#292929"/>
  </symbol>
  <symbol fill="none" xmlns="http://www.w3.org/2000/svg" viewBox="0 0 18 19" id="unity-search-icon">
    <path d="M17.5303 16.835L12.447 11.7517C13.4164 10.5503 14 9.02526 14 7.36523C14 3.50585 10.8594 0.365234 7 0.365234C3.14062 0.365234 0 3.50584 0 7.36522C0 11.2246 3.14062 14.3652 7 14.3652C8.66003 14.3652 10.1851 13.7816 11.3865 12.8122L16.4697 17.8955C16.6162 18.042 16.8076 18.1152 17 18.1152C17.1924 18.1152 17.3838 18.042 17.5303 17.8955C17.8232 17.6025 17.8232 17.1279 17.5303 16.835ZM7 12.8652C3.96777 12.8652 1.5 10.3975 1.5 7.36522C1.5 4.33299 3.96777 1.86522 7 1.86522C10.0322 1.86522 12.5 4.33299 12.5 7.36522C12.5 10.3975 10.0322 12.8652 7 12.8652Z" fill="#292929"></path>
  </symbol>
</svg>